<svg width="391" height="83" viewBox="0 0 391 83" fill="none" xmlns="http://www.w3.org/2000/svg">
<path d="M390 0.5H0V82.5H390V0.5Z" fill="white" stroke="#EEF2F5"/>
<path d="M59.9917 30.4791C59.9917 31.2291 59.3667 31.8166 58.6583 31.8166H57.325L57.3542 38.4916C57.3542 38.6041 57.3458 38.7166 57.3333 38.8291V39.4999C57.3333 40.4208 56.5875 41.1666 55.6667 41.1666H55C54.9542 41.1666 54.9083 41.1666 54.8625 41.1624C54.8042 41.1666 54.7458 41.1666 54.6875 41.1666H52.3333C51.4125 41.1666 50.6667 40.4208 50.6667 39.4999V34.8333C50.6667 34.0958 50.0708 33.4999 49.3333 33.4999H46.6667C45.9292 33.4999 45.3333 34.0958 45.3333 34.8333V39.4999C45.3333 40.4208 44.5875 41.1666 43.6667 41.1666H41.3375C41.275 41.1666 41.2125 41.1624 41.15 41.1583C41.1 41.1624 41.05 41.1666 41 41.1666H40.3333C39.4125 41.1666 38.6667 40.4208 38.6667 39.4999V34.8333C38.6667 34.7958 38.6667 34.7541 38.6708 34.7166V31.8166H37.3375C36.5875 31.8166 36 31.2291 36 30.4791C36 30.1041 36.1542 29.7458 36.425 29.4916L47.0917 20.1958C47.6167 19.7124 48.3833 19.7124 48.9083 20.1958L59.5667 29.4916C59.8375 29.7458 59.9917 30.1041 59.9917 30.4791Z" fill="#EF4444"/>
<path d="M21.417 55.8945V54.5H27.9873V55.8945H25.5381V62.5H23.8662V55.8945H21.417ZM28.415 62.5V56.5H30.0283V57.5469H30.0908C30.2002 57.1745 30.3838 56.8932 30.6416 56.7031C30.8994 56.5104 31.1963 56.4141 31.5322 56.4141C31.6156 56.4141 31.7054 56.4193 31.8018 56.4297C31.8981 56.4401 31.9827 56.4544 32.0557 56.4727V57.9492C31.9775 57.9258 31.8695 57.9049 31.7314 57.8867C31.5934 57.8685 31.4671 57.8594 31.3525 57.8594C31.1077 57.8594 30.889 57.9128 30.6963 58.0195C30.5062 58.1237 30.3551 58.2695 30.2432 58.457C30.1338 58.6445 30.0791 58.8607 30.0791 59.1055V62.5H28.415ZM34.4551 62.6133C34.0723 62.6133 33.7311 62.5469 33.4316 62.4141C33.1322 62.2786 32.8952 62.0794 32.7207 61.8164C32.5488 61.5508 32.4629 61.2201 32.4629 60.8242C32.4629 60.4909 32.5241 60.2109 32.6465 59.9844C32.7689 59.7578 32.9355 59.5755 33.1465 59.4375C33.3574 59.2995 33.597 59.1953 33.8652 59.125C34.1361 59.0547 34.4199 59.0052 34.7168 58.9766C35.0658 58.9401 35.347 58.9062 35.5605 58.875C35.7741 58.8411 35.929 58.7917 36.0254 58.7266C36.1217 58.6615 36.1699 58.5651 36.1699 58.4375V58.4141C36.1699 58.1667 36.0918 57.9753 35.9355 57.8398C35.7819 57.7044 35.5632 57.6367 35.2793 57.6367C34.9798 57.6367 34.7415 57.7031 34.5645 57.8359C34.3874 57.9661 34.2702 58.1302 34.2129 58.3281L32.6738 58.2031C32.752 57.8385 32.9056 57.5234 33.1348 57.2578C33.3639 56.9896 33.6595 56.7839 34.0215 56.6406C34.3861 56.4948 34.8079 56.4219 35.2871 56.4219C35.6204 56.4219 35.9395 56.4609 36.2441 56.5391C36.5514 56.6172 36.8236 56.7383 37.0605 56.9023C37.3001 57.0664 37.4889 57.2773 37.627 57.5352C37.765 57.7904 37.834 58.0964 37.834 58.4531V62.5H36.2559V61.668H36.209C36.1126 61.8555 35.9837 62.0208 35.8223 62.1641C35.6608 62.3047 35.4668 62.4154 35.2402 62.4961C35.0137 62.5742 34.752 62.6133 34.4551 62.6133ZM34.9316 61.4648C35.1764 61.4648 35.3926 61.4167 35.5801 61.3203C35.7676 61.2214 35.9147 61.0885 36.0215 60.9219C36.1283 60.7552 36.1816 60.5664 36.1816 60.3555V59.7188C36.1296 59.7526 36.0579 59.7839 35.9668 59.8125C35.8783 59.8385 35.778 59.8633 35.666 59.8867C35.554 59.9076 35.4421 59.9271 35.3301 59.9453C35.2181 59.9609 35.1165 59.9753 35.0254 59.9883C34.8301 60.0169 34.6595 60.0625 34.5137 60.125C34.3678 60.1875 34.2546 60.2721 34.1738 60.3789C34.0931 60.4831 34.0527 60.6133 34.0527 60.7695C34.0527 60.9961 34.1348 61.1693 34.2988 61.2891C34.4655 61.4062 34.6764 61.4648 34.9316 61.4648ZM40.7891 59.0313V62.5H39.125V56.5H40.7109V57.5586H40.7812C40.9141 57.2096 41.1367 56.9336 41.4492 56.7305C41.7617 56.5247 42.1406 56.4219 42.5859 56.4219C43.0026 56.4219 43.3659 56.513 43.6758 56.6953C43.9857 56.8776 44.2266 57.138 44.3984 57.4766C44.5703 57.8125 44.6563 58.2135 44.6563 58.6797V62.5H42.9922V58.9766C42.9948 58.6094 42.901 58.3229 42.7109 58.1172C42.5208 57.9089 42.2591 57.8047 41.9258 57.8047C41.7018 57.8047 41.5039 57.8529 41.332 57.9492C41.1628 58.0456 41.0299 58.1862 40.9336 58.3711C40.8398 58.5534 40.7917 58.7734 40.7891 59.0313ZM48.6709 64.875C48.1318 64.875 47.6696 64.8008 47.2842 64.6523C46.9014 64.5065 46.5967 64.3073 46.3701 64.0547C46.1436 63.8021 45.9964 63.5182 45.9287 63.2031L47.4678 62.9961C47.5146 63.1159 47.5889 63.2279 47.6904 63.332C47.792 63.4362 47.9261 63.5195 48.0928 63.582C48.262 63.6471 48.4678 63.6797 48.71 63.6797C49.0719 63.6797 49.3701 63.5911 49.6045 63.4141C49.8415 63.2396 49.96 62.9466 49.96 62.5352V61.4375H49.8896C49.8167 61.6042 49.7074 61.7617 49.5615 61.9102C49.4157 62.0586 49.2282 62.1797 48.999 62.2734C48.7699 62.3672 48.4964 62.4141 48.1787 62.4141C47.7282 62.4141 47.318 62.3099 46.9482 62.1016C46.5811 61.8906 46.2881 61.569 46.0693 61.1367C45.8532 60.7018 45.7451 60.1523 45.7451 59.4883C45.7451 58.8086 45.8558 58.2409 46.0771 57.7852C46.2985 57.3294 46.5928 56.9883 46.96 56.7617C47.3298 56.5352 47.7347 56.4219 48.1748 56.4219C48.5107 56.4219 48.792 56.4792 49.0186 56.5938C49.2451 56.7057 49.4274 56.8464 49.5654 57.0156C49.7061 57.1823 49.8141 57.3464 49.8896 57.5078H49.9521V56.5H51.6045V62.5586C51.6045 63.069 51.4795 63.4961 51.2295 63.8398C50.9795 64.1836 50.6331 64.4414 50.1904 64.6133C49.7503 64.7878 49.2438 64.875 48.6709 64.875ZM48.7061 61.1641C48.9743 61.1641 49.2008 61.0977 49.3857 60.9648C49.5732 60.8294 49.7165 60.6367 49.8154 60.3867C49.917 60.1341 49.9678 59.832 49.9678 59.4805C49.9678 59.1289 49.9183 58.8242 49.8193 58.5664C49.7204 58.306 49.5771 58.1042 49.3896 57.9609C49.2021 57.8177 48.9743 57.7461 48.7061 57.7461C48.4326 57.7461 48.2021 57.8203 48.0146 57.9687C47.8271 58.1146 47.6852 58.3177 47.5889 58.5781C47.4925 58.8385 47.4443 59.1393 47.4443 59.4805C47.4443 59.8268 47.4925 60.1263 47.5889 60.3789C47.6878 60.6289 47.8298 60.8229 48.0146 60.9609C48.2021 61.0964 48.4326 61.1641 48.7061 61.1641ZM58.1855 62.6172C57.571 62.6172 57.0423 62.487 56.5996 62.2266C56.1595 61.9635 55.821 61.599 55.584 61.1328C55.3496 60.6667 55.2324 60.1302 55.2324 59.5234C55.2324 58.9089 55.3509 58.3698 55.5879 57.9062C55.8275 57.4401 56.1673 57.0768 56.6074 56.8164C57.0475 56.5534 57.571 56.4219 58.1777 56.4219C58.7012 56.4219 59.1595 56.5169 59.5527 56.707C59.946 56.8971 60.2572 57.1641 60.4863 57.5078C60.7155 57.8516 60.8418 58.2552 60.8652 58.7188H59.2949C59.2507 58.4193 59.1335 58.1784 58.9434 57.9961C58.7559 57.8112 58.5098 57.7187 58.2051 57.7187C57.9473 57.7187 57.722 57.7891 57.5293 57.9297C57.3392 58.0677 57.1908 58.2695 57.084 58.5352C56.9772 58.8008 56.9238 59.1224 56.9238 59.5C56.9238 59.8828 56.9759 60.2083 57.0801 60.4766C57.1868 60.7448 57.3366 60.9492 57.5293 61.0898C57.722 61.2305 57.9473 61.3008 58.2051 61.3008C58.3952 61.3008 58.5658 61.2617 58.7168 61.1836C58.8704 61.1055 58.9967 60.9922 59.0957 60.8437C59.1973 60.6927 59.2637 60.5117 59.2949 60.3008H60.8652C60.8392 60.7591 60.7142 61.1628 60.4902 61.5117C60.2689 61.8581 59.9629 62.1289 59.5723 62.3242C59.1816 62.5195 58.7194 62.6172 58.1855 62.6172ZM63.5947 59.0313V62.5H61.9307V54.5H63.5479V57.5586H63.6182C63.7536 57.2044 63.9723 56.9271 64.2744 56.7266C64.5765 56.5234 64.9554 56.4219 65.4111 56.4219C65.8278 56.4219 66.1911 56.513 66.501 56.6953C66.8135 56.875 67.0557 57.1341 67.2275 57.4727C67.402 57.8086 67.488 58.2109 67.4854 58.6797V62.5H65.8213V58.9766C65.8239 58.6068 65.7301 58.319 65.54 58.1133C65.3525 57.9076 65.0895 57.8047 64.751 57.8047C64.5244 57.8047 64.3239 57.8529 64.1494 57.9492C63.9775 58.0456 63.8421 58.1862 63.7432 58.3711C63.6468 58.5534 63.5973 58.7734 63.5947 59.0313ZM72.6426 59.9453V56.5H74.3066V62.5H72.709V61.4102H72.6465C72.5111 61.7617 72.2858 62.0443 71.9707 62.2578C71.6582 62.4714 71.2767 62.5781 70.8262 62.5781C70.4251 62.5781 70.0723 62.487 69.7676 62.3047C69.4629 62.1224 69.2246 61.8633 69.0527 61.5273C68.8835 61.1914 68.7975 60.7891 68.7949 60.3203V56.5H70.459V60.0234C70.4616 60.3776 70.5566 60.6576 70.7441 60.8633C70.9316 61.069 71.1829 61.1719 71.498 61.1719C71.6986 61.1719 71.8861 61.1263 72.0605 61.0352C72.235 60.9414 72.3757 60.8034 72.4824 60.6211C72.5918 60.4388 72.6452 60.2135 72.6426 59.9453ZM72.1738 55.6406H70.9395L70.8535 54.9375C71.1296 54.9245 71.3262 54.888 71.4434 54.8281C71.5605 54.7656 71.6178 54.6836 71.6152 54.582C71.6178 54.4414 71.5436 54.3464 71.3926 54.2969C71.2441 54.2474 71.0579 54.2227 70.834 54.2227L70.877 53.4687C71.5723 53.4687 72.1009 53.5625 72.4629 53.75C72.8275 53.9375 73.0085 54.1979 73.0059 54.5313C73.0085 54.7682 72.9225 54.9479 72.748 55.0703C72.5762 55.1901 72.3848 55.2656 72.1738 55.2969V55.6406Z" fill="#EF4444"/>
<path d="M116 20.8333C116 20.2791 116.446 19.8333 117 19.8333H118.896C119.812 19.8333 120.625 20.3666 121.004 21.1666H138.129C139.225 21.1666 140.025 22.2083 139.738 23.2666L138.029 29.6124C137.675 30.9208 136.488 31.8333 135.133 31.8333H123.113L123.338 33.0208C123.429 33.4916 123.842 33.8333 124.321 33.8333H136.333C136.888 33.8333 137.333 34.2791 137.333 34.8333C137.333 35.3874 136.888 35.8333 136.333 35.8333H124.321C122.879 35.8333 121.642 34.8083 121.375 33.3958L119.225 22.1041C119.196 21.9458 119.058 21.8333 118.896 21.8333H117C116.446 21.8333 116 21.3874 116 20.8333ZM121.333 39.1666C121.333 38.9039 121.385 38.6439 121.486 38.4012C121.586 38.1586 121.733 37.9381 121.919 37.7524C122.105 37.5667 122.325 37.4193 122.568 37.3188C122.811 37.2183 123.071 37.1666 123.333 37.1666C123.596 37.1666 123.856 37.2183 124.099 37.3188C124.341 37.4193 124.562 37.5667 124.748 37.7524C124.933 37.9381 125.081 38.1586 125.181 38.4012C125.282 38.6439 125.333 38.9039 125.333 39.1666C125.333 39.4292 125.282 39.6893 125.181 39.932C125.081 40.1746 124.933 40.3951 124.748 40.5808C124.562 40.7665 124.341 40.9138 124.099 41.0143C123.856 41.1149 123.596 41.1666 123.333 41.1666C123.071 41.1666 122.811 41.1149 122.568 41.0143C122.325 40.9138 122.105 40.7665 121.919 40.5808C121.733 40.3951 121.586 40.1746 121.486 39.932C121.385 39.6893 121.333 39.4292 121.333 39.1666ZM135.333 37.1666C135.864 37.1666 136.372 37.3773 136.748 37.7524C137.123 38.1274 137.333 38.6362 137.333 39.1666C137.333 39.697 137.123 40.2057 136.748 40.5808C136.372 40.9559 135.864 41.1666 135.333 41.1666C134.803 41.1666 134.294 40.9559 133.919 40.5808C133.544 40.2057 133.333 39.697 133.333 39.1666C133.333 38.6362 133.544 38.1274 133.919 37.7524C134.294 37.3773 134.803 37.1666 135.333 37.1666Z" fill="#8A939E"/>
<path d="M107.404 62.5H105.322V61.0508H107.334C107.834 61.0508 108.255 60.9622 108.596 60.7852C108.939 60.6055 109.197 60.3281 109.369 59.9531C109.544 59.5755 109.631 59.0885 109.631 58.4922C109.631 57.901 109.544 57.418 109.369 57.043C109.197 56.668 108.941 56.3919 108.6 56.2148C108.258 56.0378 107.838 55.9492 107.338 55.9492H105.287V54.5H107.428C108.232 54.5 108.925 54.6602 109.506 54.9805C110.087 55.2982 110.533 55.7552 110.846 56.3516C111.161 56.9479 111.318 57.6615 111.318 58.4922C111.318 59.3255 111.161 60.0417 110.846 60.6406C110.533 61.2396 110.084 61.6992 109.498 62.0195C108.915 62.3398 108.217 62.5 107.404 62.5ZM106.26 54.5V62.5H104.568V54.5H106.26ZM103.459 58.7734V57.7891H107.354V58.7734H103.459ZM114.251 62.6133C113.868 62.6133 113.527 62.5469 113.228 62.4141C112.928 62.2786 112.691 62.0794 112.517 61.8164C112.345 61.5508 112.259 61.2201 112.259 60.8242C112.259 60.4909 112.32 60.2109 112.442 59.9844C112.565 59.7578 112.731 59.5755 112.942 59.4375C113.153 59.2995 113.393 59.1953 113.661 59.125C113.932 59.0547 114.216 59.0052 114.513 58.9766C114.862 58.9401 115.143 58.9062 115.356 58.875C115.57 58.8411 115.725 58.7917 115.821 58.7266C115.918 58.6615 115.966 58.5651 115.966 58.4375V58.4141C115.966 58.1667 115.888 57.9753 115.731 57.8398C115.578 57.7044 115.359 57.6367 115.075 57.6367C114.776 57.6367 114.537 57.7031 114.36 57.8359C114.183 57.9661 114.066 58.1302 114.009 58.3281L112.47 58.2031C112.548 57.8385 112.701 57.5234 112.931 57.2578C113.16 56.9896 113.455 56.7839 113.817 56.6406C114.182 56.4948 114.604 56.4219 115.083 56.4219C115.416 56.4219 115.735 56.4609 116.04 56.5391C116.347 56.6172 116.619 56.7383 116.856 56.9023C117.096 57.0664 117.285 57.2773 117.423 57.5352C117.561 57.7904 117.63 58.0964 117.63 58.4531V62.5H116.052V61.668H116.005C115.909 61.8555 115.78 62.0208 115.618 62.1641C115.457 62.3047 115.263 62.4154 115.036 62.4961C114.81 62.5742 114.548 62.6133 114.251 62.6133ZM114.728 61.4648C114.972 61.4648 115.188 61.4167 115.376 61.3203C115.563 61.2214 115.711 61.0885 115.817 60.9219C115.924 60.7552 115.978 60.5664 115.978 60.3555V59.7188C115.925 59.7526 115.854 59.7839 115.763 59.8125C115.674 59.8385 115.574 59.8633 115.462 59.8867C115.35 59.9076 115.238 59.9271 115.126 59.9453C115.014 59.9609 114.912 59.9753 114.821 59.9883C114.626 60.0169 114.455 60.0625 114.31 60.125C114.164 60.1875 114.05 60.2721 113.97 60.3789C113.889 60.4831 113.849 60.6133 113.849 60.7695C113.849 60.9961 113.931 61.1693 114.095 61.2891C114.261 61.4062 114.472 61.4648 114.728 61.4648ZM115.919 54.4062H117.079C117.076 54.8802 116.901 55.2617 116.552 55.5508C116.205 55.8398 115.737 55.9844 115.146 55.9844C114.552 55.9844 114.082 55.8398 113.735 55.5508C113.389 55.2617 113.216 54.8802 113.216 54.4062H114.368C114.366 54.5859 114.423 54.7474 114.54 54.8906C114.66 55.0339 114.862 55.1055 115.146 55.1055C115.422 55.1055 115.619 55.0352 115.739 54.8945C115.859 54.7539 115.919 54.5911 115.919 54.4062ZM115.079 64.7461C114.832 64.7461 114.619 64.6641 114.442 64.5C114.265 64.3359 114.177 64.138 114.177 63.9062C114.177 63.6745 114.265 63.4766 114.442 63.3125C114.619 63.1484 114.832 63.0664 115.079 63.0664C115.326 63.0664 115.537 63.1484 115.712 63.3125C115.889 63.4766 115.978 63.6745 115.978 63.9062C115.978 64.138 115.889 64.3359 115.712 64.5C115.537 64.6641 115.326 64.7461 115.079 64.7461ZM122.112 56.5V57.75H118.499V56.5H122.112ZM119.319 55.0625H120.983V60.6562C120.983 60.8099 121.007 60.9297 121.054 61.0156C121.101 61.099 121.166 61.1576 121.249 61.1914C121.335 61.2253 121.434 61.2422 121.546 61.2422C121.624 61.2422 121.702 61.2357 121.78 61.2227C121.858 61.207 121.918 61.1953 121.96 61.1875L122.222 62.4258C122.138 62.4518 122.021 62.4818 121.87 62.5156C121.719 62.5521 121.535 62.5742 121.319 62.582C120.918 62.5977 120.567 62.5443 120.265 62.4219C119.965 62.2995 119.732 62.1094 119.565 61.8516C119.399 61.5937 119.317 61.2682 119.319 60.875V55.0625ZM127.406 59.0313V62.5H125.742V54.5H127.359V57.5586H127.43C127.565 57.2044 127.784 56.9271 128.086 56.7266C128.388 56.5234 128.767 56.4219 129.223 56.4219C129.639 56.4219 130.003 56.513 130.313 56.6953C130.625 56.875 130.867 57.1341 131.039 57.4727C131.214 57.8086 131.299 58.2109 131.297 58.6797V62.5H129.633V58.9766C129.635 58.6068 129.542 58.319 129.352 58.1133C129.164 57.9076 128.901 57.8047 128.563 57.8047C128.336 57.8047 128.135 57.8529 127.961 57.9492C127.789 58.0456 127.654 58.1862 127.555 58.3711C127.458 58.5534 127.409 58.7734 127.406 59.0313ZM134.317 62.6133C133.935 62.6133 133.593 62.5469 133.294 62.4141C132.994 62.2786 132.757 62.0794 132.583 61.8164C132.411 61.5508 132.325 61.2201 132.325 60.8242C132.325 60.4909 132.386 60.2109 132.509 59.9844C132.631 59.7578 132.798 59.5755 133.009 59.4375C133.22 59.2995 133.459 59.1953 133.728 59.125C133.998 59.0547 134.282 59.0052 134.579 58.9766C134.928 58.9401 135.209 58.9062 135.423 58.875C135.636 58.8411 135.791 58.7917 135.888 58.7266C135.984 58.6615 136.032 58.5651 136.032 58.4375V58.4141C136.032 58.1667 135.954 57.9753 135.798 57.8398C135.644 57.7044 135.425 57.6367 135.142 57.6367C134.842 57.6367 134.604 57.7031 134.427 57.8359C134.25 57.9661 134.132 58.1302 134.075 58.3281L132.536 58.2031C132.614 57.8385 132.768 57.5234 132.997 57.2578C133.226 56.9896 133.522 56.7839 133.884 56.6406C134.248 56.4948 134.67 56.4219 135.149 56.4219C135.483 56.4219 135.802 56.4609 136.106 56.5391C136.414 56.6172 136.686 56.7383 136.923 56.9023C137.162 57.0664 137.351 57.2773 137.489 57.5352C137.627 57.7904 137.696 58.0964 137.696 58.4531V62.5H136.118V61.668H136.071C135.975 61.8555 135.846 62.0208 135.685 62.1641C135.523 62.3047 135.329 62.4154 135.103 62.4961C134.876 62.5742 134.614 62.6133 134.317 62.6133ZM134.794 61.4648C135.039 61.4648 135.255 61.4167 135.442 61.3203C135.63 61.2214 135.777 61.0885 135.884 60.9219C135.991 60.7552 136.044 60.5664 136.044 60.3555V59.7188C135.992 59.7526 135.92 59.7839 135.829 59.8125C135.741 59.8385 135.64 59.8633 135.528 59.8867C135.416 59.9076 135.304 59.9271 135.192 59.9453C135.08 59.9609 134.979 59.9753 134.888 59.9883C134.692 60.0169 134.522 60.0625 134.376 60.125C134.23 60.1875 134.117 60.2721 134.036 60.3789C133.955 60.4831 133.915 60.6133 133.915 60.7695C133.915 60.9961 133.997 61.1693 134.161 61.2891C134.328 61.4062 134.539 61.4648 134.794 61.4648ZM134.634 55.7266L133.442 53.9492H134.978L135.81 55.7266H134.634ZM140.651 59.0313V62.5H138.987V56.5H140.573V57.5586H140.644C140.776 57.2096 140.999 56.9336 141.312 56.7305C141.624 56.5247 142.003 56.4219 142.448 56.4219C142.865 56.4219 143.228 56.513 143.538 56.6953C143.848 56.8776 144.089 57.138 144.261 57.4766C144.433 57.8125 144.519 58.2135 144.519 58.6797V62.5H142.854V58.9766C142.857 58.6094 142.763 58.3229 142.573 58.1172C142.383 57.9089 142.121 57.8047 141.788 57.8047C141.564 57.8047 141.366 57.8529 141.194 57.9492C141.025 58.0456 140.892 58.1862 140.796 58.3711C140.702 58.5534 140.654 58.7734 140.651 59.0313ZM148.533 64.875C147.994 64.875 147.532 64.8008 147.146 64.6523C146.764 64.5065 146.459 64.3073 146.232 64.0547C146.006 63.8021 145.859 63.5182 145.791 63.2031L147.33 62.9961C147.377 63.1159 147.451 63.2279 147.553 63.332C147.654 63.4362 147.788 63.5195 147.955 63.582C148.124 63.6471 148.33 63.6797 148.572 63.6797C148.934 63.6797 149.232 63.5911 149.467 63.4141C149.704 63.2396 149.822 62.9466 149.822 62.5352V61.4375H149.752C149.679 61.6042 149.57 61.7617 149.424 61.9102C149.278 62.0586 149.09 62.1797 148.861 62.2734C148.632 62.3672 148.359 62.4141 148.041 62.4141C147.59 62.4141 147.18 62.3099 146.811 62.1016C146.443 61.8906 146.15 61.569 145.932 61.1367C145.715 60.7018 145.607 60.1523 145.607 59.4883C145.607 58.8086 145.718 58.2409 145.939 57.7852C146.161 57.3294 146.455 56.9883 146.822 56.7617C147.192 56.5352 147.597 56.4219 148.037 56.4219C148.373 56.4219 148.654 56.4792 148.881 56.5938C149.107 56.7057 149.29 56.8464 149.428 57.0156C149.568 57.1823 149.676 57.3464 149.752 57.5078H149.814V56.5H151.467V62.5586C151.467 63.069 151.342 63.4961 151.092 63.8398C150.842 64.1836 150.495 64.4414 150.053 64.6133C149.613 64.7878 149.106 64.875 148.533 64.875ZM148.568 61.1641C148.837 61.1641 149.063 61.0977 149.248 60.9648C149.436 60.8294 149.579 60.6367 149.678 60.3867C149.779 60.1341 149.83 59.832 149.83 59.4805C149.83 59.1289 149.781 58.8242 149.682 58.5664C149.583 58.306 149.439 58.1042 149.252 57.9609C149.064 57.8177 148.837 57.7461 148.568 57.7461C148.295 57.7461 148.064 57.8203 147.877 57.9687C147.689 58.1146 147.548 58.3177 147.451 58.5781C147.355 58.8385 147.307 59.1393 147.307 59.4805C147.307 59.8268 147.355 60.1263 147.451 60.3789C147.55 60.6289 147.692 60.8229 147.877 60.9609C148.064 61.0964 148.295 61.1641 148.568 61.1641Z" fill="#8A939E"/>
<g clip-path="url(#clip0_0_1)">
<path d="M196 20.75C196 19.5078 197.008 18.5 198.25 18.5H210.25C211.492 18.5 212.5 19.5078 212.5 20.75V23H214.877C215.673 23 216.438 23.3141 217 23.8766L219.123 26C219.686 26.5625 220 27.3266 220 28.1234V35.75C220 36.9922 218.992 38 217.75 38H217C217 40.4844 214.984 42.5 212.5 42.5C210.016 42.5 208 40.4844 208 38H205C205 40.4844 202.984 42.5 200.5 42.5C198.016 42.5 196 40.4844 196 38V20.75ZM217 28.1234L214.877 26H212.5V30.5H217V28.1234ZM200.5 35.75C199.903 35.75 199.331 35.9871 198.909 36.409C198.487 36.831 198.25 37.4033 198.25 38C198.25 38.5967 198.487 39.169 198.909 39.591C199.331 40.0129 199.903 40.25 200.5 40.25C201.097 40.25 201.669 40.0129 202.091 39.591C202.513 39.169 202.75 38.5967 202.75 38C202.75 37.4033 202.513 36.831 202.091 36.409C201.669 35.9871 201.097 35.75 200.5 35.75ZM212.5 38C212.5 38.2955 212.558 38.5881 212.671 38.861C212.784 39.134 212.95 39.3821 213.159 39.591C213.368 39.7999 213.616 39.9657 213.889 40.0787C214.162 40.1918 214.455 40.25 214.75 40.25C215.045 40.25 215.338 40.1918 215.611 40.0787C215.884 39.9657 216.132 39.7999 216.341 39.591C216.55 39.3821 216.716 39.134 216.829 38.861C216.942 38.5881 217 38.2955 217 38C217 37.7045 216.942 37.4119 216.829 37.139C216.716 36.866 216.55 36.6179 216.341 36.409C216.132 36.2001 215.884 36.0343 215.611 35.9213C215.338 35.8082 215.045 35.75 214.75 35.75C214.455 35.75 214.162 35.8082 213.889 35.9213C213.616 36.0343 213.368 36.2001 213.159 36.409C212.95 36.6179 212.784 36.866 212.671 37.139C212.558 37.4119 212.5 37.7045 212.5 38Z" fill="#8A939E"/>
</g>
<path d="M186.769 57.0859C186.714 56.8958 186.637 56.7279 186.538 56.582C186.439 56.4336 186.318 56.3086 186.175 56.207C186.034 56.1029 185.873 56.0234 185.69 55.9688C185.511 55.9141 185.312 55.8867 185.093 55.8867C184.684 55.8867 184.325 55.9883 184.015 56.1914C183.707 56.3945 183.468 56.6901 183.296 57.0781C183.124 57.4635 183.038 57.9349 183.038 58.4922C183.038 59.0495 183.123 59.5234 183.292 59.9141C183.461 60.3047 183.701 60.6029 184.011 60.8086C184.321 61.0117 184.687 61.1133 185.108 61.1133C185.491 61.1133 185.818 61.0456 186.089 60.9102C186.362 60.7721 186.571 60.5781 186.714 60.3281C186.86 60.0781 186.933 59.7826 186.933 59.4414L187.276 59.4922H185.214V58.2187H188.562V59.2266C188.562 59.9297 188.413 60.5339 188.116 61.0391C187.819 61.5417 187.41 61.9297 186.89 62.2031C186.369 62.474 185.772 62.6094 185.101 62.6094C184.351 62.6094 183.692 62.444 183.124 62.1133C182.556 61.7799 182.114 61.3073 181.796 60.6953C181.481 60.0807 181.323 59.3516 181.323 58.5078C181.323 57.8594 181.417 57.2812 181.604 56.7734C181.795 56.263 182.06 55.8307 182.401 55.4766C182.743 55.1224 183.14 54.8529 183.593 54.668C184.046 54.4831 184.537 54.3906 185.065 54.3906C185.519 54.3906 185.94 54.457 186.331 54.5898C186.722 54.7201 187.068 54.9049 187.37 55.1445C187.675 55.3841 187.924 55.6693 188.116 56C188.309 56.3281 188.433 56.6901 188.487 57.0859H186.769ZM190.177 62.5V56.5H191.841V62.5H190.177ZM191.013 55.7266C190.765 55.7266 190.553 55.6445 190.376 55.4805C190.201 55.3138 190.114 55.1146 190.114 54.8828C190.114 54.6536 190.201 54.457 190.376 54.293C190.553 54.1263 190.765 54.043 191.013 54.043C191.26 54.043 191.471 54.1263 191.646 54.293C191.823 54.457 191.911 54.6536 191.911 54.8828C191.911 55.1146 191.823 55.3138 191.646 55.4805C191.471 55.6445 191.26 55.7266 191.013 55.7266ZM194.885 62.6133C194.502 62.6133 194.161 62.5469 193.861 62.4141C193.562 62.2786 193.325 62.0794 193.15 61.8164C192.979 61.5508 192.893 61.2201 192.893 60.8242C192.893 60.4909 192.954 60.2109 193.076 59.9844C193.199 59.7578 193.365 59.5755 193.576 59.4375C193.787 59.2995 194.027 59.1953 194.295 59.125C194.566 59.0547 194.85 59.0052 195.146 58.9766C195.495 58.9401 195.777 58.9062 195.99 58.875C196.204 58.8411 196.359 58.7917 196.455 58.7266C196.551 58.6615 196.6 58.5651 196.6 58.4375V58.4141C196.6 58.1667 196.521 57.9753 196.365 57.8398C196.212 57.7044 195.993 57.6367 195.709 57.6367C195.41 57.6367 195.171 57.7031 194.994 57.8359C194.817 57.9661 194.7 58.1302 194.643 58.3281L193.104 58.2031C193.182 57.8385 193.335 57.5234 193.564 57.2578C193.794 56.9896 194.089 56.7839 194.451 56.6406C194.816 56.4948 195.238 56.4219 195.717 56.4219C196.05 56.4219 196.369 56.4609 196.674 56.5391C196.981 56.6172 197.253 56.7383 197.49 56.9023C197.73 57.0664 197.919 57.2773 198.057 57.5352C198.195 57.7904 198.264 58.0964 198.264 58.4531V62.5H196.686V61.668H196.639C196.542 61.8555 196.413 62.0208 196.252 62.1641C196.09 62.3047 195.896 62.4154 195.67 62.4961C195.443 62.5742 195.182 62.6133 194.885 62.6133ZM195.361 61.4648C195.606 61.4648 195.822 61.4167 196.01 61.3203C196.197 61.2214 196.344 61.0885 196.451 60.9219C196.558 60.7552 196.611 60.5664 196.611 60.3555V59.7188C196.559 59.7526 196.488 59.7839 196.396 59.8125C196.308 59.8385 196.208 59.8633 196.096 59.8867C195.984 59.9076 195.872 59.9271 195.76 59.9453C195.648 59.9609 195.546 59.9753 195.455 59.9883C195.26 60.0169 195.089 60.0625 194.943 60.125C194.798 60.1875 194.684 60.2721 194.604 60.3789C194.523 60.4831 194.482 60.6133 194.482 60.7695C194.482 60.9961 194.564 61.1693 194.729 61.2891C194.895 61.4062 195.106 61.4648 195.361 61.4648ZM202.266 62.6172C201.659 62.6172 201.134 62.4883 200.691 62.2305C200.251 61.9701 199.911 61.6081 199.672 61.1445C199.432 60.6784 199.313 60.138 199.313 59.5234C199.313 58.9036 199.432 58.362 199.672 57.8984C199.911 57.4323 200.251 57.0703 200.691 56.8125C201.134 56.5521 201.659 56.4219 202.266 56.4219C202.872 56.4219 203.396 56.5521 203.836 56.8125C204.279 57.0703 204.62 57.4323 204.859 57.8984C205.099 58.362 205.219 58.9036 205.219 59.5234C205.219 60.138 205.099 60.6784 204.859 61.1445C204.62 61.6081 204.279 61.9701 203.836 62.2305C203.396 62.4883 202.872 62.6172 202.266 62.6172ZM202.273 61.3281C202.549 61.3281 202.78 61.25 202.965 61.0938C203.15 60.9349 203.289 60.7187 203.383 60.4453C203.479 60.1719 203.527 59.8607 203.527 59.5117C203.527 59.1628 203.479 58.8516 203.383 58.5781C203.289 58.3047 203.15 58.0885 202.965 57.9297C202.78 57.7708 202.549 57.6914 202.273 57.6914C201.995 57.6914 201.76 57.7708 201.57 57.9297C201.383 58.0885 201.241 58.3047 201.145 58.5781C201.051 58.8516 201.004 59.1628 201.004 59.5117C201.004 59.8607 201.051 60.1719 201.145 60.4453C201.241 60.7187 201.383 60.9349 201.57 61.0938C201.76 61.25 201.995 61.3281 202.273 61.3281ZM210.511 59.0313V62.5H208.847V54.5H210.464V57.5586H210.534C210.67 57.2044 210.888 56.9271 211.19 56.7266C211.493 56.5234 211.871 56.4219 212.327 56.4219C212.744 56.4219 213.107 56.513 213.417 56.6953C213.729 56.875 213.972 57.1341 214.144 57.4727C214.318 57.8086 214.404 58.2109 214.401 58.6797V62.5H212.737V58.9766C212.74 58.6068 212.646 58.319 212.456 58.1133C212.269 57.9076 212.006 57.8047 211.667 57.8047C211.44 57.8047 211.24 57.8529 211.065 57.9492C210.894 58.0456 210.758 58.1862 210.659 58.3711C210.563 58.5534 210.513 58.7734 210.511 59.0313ZM217.422 62.6133C217.039 62.6133 216.698 62.5469 216.398 62.4141C216.099 62.2786 215.862 62.0794 215.688 61.8164C215.516 61.5508 215.43 61.2201 215.43 60.8242C215.43 60.4909 215.491 60.2109 215.613 59.9844C215.736 59.7578 215.902 59.5755 216.113 59.4375C216.324 59.2995 216.564 59.1953 216.832 59.125C217.103 59.0547 217.387 59.0052 217.684 58.9766C218.033 58.9401 218.314 58.9062 218.527 58.875C218.741 58.8411 218.896 58.7917 218.992 58.7266C219.089 58.6615 219.137 58.5651 219.137 58.4375V58.4141C219.137 58.1667 219.059 57.9753 218.902 57.8398C218.749 57.7044 218.53 57.6367 218.246 57.6367C217.947 57.6367 217.708 57.7031 217.531 57.8359C217.354 57.9661 217.237 58.1302 217.18 58.3281L215.641 58.2031C215.719 57.8385 215.872 57.5234 216.102 57.2578C216.331 56.9896 216.626 56.7839 216.988 56.6406C217.353 56.4948 217.775 56.4219 218.254 56.4219C218.587 56.4219 218.906 56.4609 219.211 56.5391C219.518 56.6172 219.79 56.7383 220.027 56.9023C220.267 57.0664 220.456 57.2773 220.594 57.5352C220.732 57.7904 220.801 58.0964 220.801 58.4531V62.5H219.223V61.668H219.176C219.079 61.8555 218.951 62.0208 218.789 62.1641C218.628 62.3047 218.434 62.4154 218.207 62.4961C217.98 62.5742 217.719 62.6133 217.422 62.6133ZM217.898 61.4648C218.143 61.4648 218.359 61.4167 218.547 61.3203C218.734 61.2214 218.882 61.0885 218.988 60.9219C219.095 60.7552 219.148 60.5664 219.148 60.3555V59.7188C219.096 59.7526 219.025 59.7839 218.934 59.8125C218.845 59.8385 218.745 59.8633 218.633 59.8867C218.521 59.9076 218.409 59.9271 218.297 59.9453C218.185 59.9609 218.083 59.9753 217.992 59.9883C217.797 60.0169 217.626 60.0625 217.48 60.125C217.335 60.1875 217.221 60.2721 217.141 60.3789C217.06 60.4831 217.02 60.6133 217.02 60.7695C217.02 60.9961 217.102 61.1693 217.266 61.2891C217.432 61.4062 217.643 61.4648 217.898 61.4648ZM217.738 55.7266L216.547 53.9492H218.082L218.914 55.7266H217.738ZM223.756 59.0313V62.5H222.092V56.5H223.678V57.5586H223.748C223.881 57.2096 224.104 56.9336 224.416 56.7305C224.729 56.5247 225.107 56.4219 225.553 56.4219C225.969 56.4219 226.333 56.513 226.643 56.6953C226.952 56.8776 227.193 57.138 227.365 57.4766C227.537 57.8125 227.623 58.2135 227.623 58.6797V62.5H225.959V58.9766C225.962 58.6094 225.868 58.3229 225.678 58.1172C225.488 57.9089 225.226 57.8047 224.893 57.8047C224.669 57.8047 224.471 57.8529 224.299 57.9492C224.13 58.0456 223.997 58.1862 223.9 58.3711C223.807 58.5534 223.758 58.7734 223.756 59.0313ZM231.638 64.875C231.099 64.875 230.636 64.8008 230.251 64.6523C229.868 64.5065 229.563 64.3073 229.337 64.0547C229.11 63.8021 228.963 63.5182 228.896 63.2031L230.435 62.9961C230.481 63.1159 230.556 63.2279 230.657 63.332C230.759 63.4362 230.893 63.5195 231.06 63.582C231.229 63.6471 231.435 63.6797 231.677 63.6797C232.039 63.6797 232.337 63.5911 232.571 63.4141C232.808 63.2396 232.927 62.9466 232.927 62.5352V61.4375H232.856C232.784 61.6042 232.674 61.7617 232.528 61.9102C232.382 62.0586 232.195 62.1797 231.966 62.2734C231.737 62.3672 231.463 62.4141 231.146 62.4141C230.695 62.4141 230.285 62.3099 229.915 62.1016C229.548 61.8906 229.255 61.569 229.036 61.1367C228.82 60.7018 228.712 60.1523 228.712 59.4883C228.712 58.8086 228.823 58.2409 229.044 57.7852C229.265 57.3294 229.56 56.9883 229.927 56.7617C230.297 56.5352 230.701 56.4219 231.142 56.4219C231.478 56.4219 231.759 56.4792 231.985 56.5938C232.212 56.7057 232.394 56.8464 232.532 57.0156C232.673 57.1823 232.781 57.3464 232.856 57.5078H232.919V56.5H234.571V62.5586C234.571 63.069 234.446 63.4961 234.196 63.8398C233.946 64.1836 233.6 64.4414 233.157 64.6133C232.717 64.7878 232.211 64.875 231.638 64.875ZM231.673 61.1641C231.941 61.1641 232.168 61.0977 232.353 60.9648C232.54 60.8294 232.683 60.6367 232.782 60.3867C232.884 60.1341 232.935 59.832 232.935 59.4805C232.935 59.1289 232.885 58.8242 232.786 58.5664C232.687 58.306 232.544 58.1042 232.356 57.9609C232.169 57.8177 231.941 57.7461 231.673 57.7461C231.399 57.7461 231.169 57.8203 230.981 57.9687C230.794 58.1146 230.652 58.3177 230.556 58.5781C230.459 58.8385 230.411 59.1393 230.411 59.4805C230.411 59.8268 230.459 60.1263 230.556 60.3789C230.655 60.6289 230.797 60.8229 230.981 60.9609C231.169 61.0964 231.399 61.1641 231.673 61.1641Z" fill="#8A939E"/>
<path d="M288 18.5C287.17 18.5 286.5 19.1703 286.5 20V20.8391C283.102 21.5656 280.5 24.5562 280.5 28.175V29.0562C280.5 31.2594 279.689 33.3875 278.227 35.0375L277.88 35.4266C277.481 35.8719 277.392 36.5047 277.631 37.0438C277.87 37.5828 278.409 38 279 38H297C297.591 38 298.125 37.6531 298.369 37.0438C298.613 36.4344 298.514 35.8719 298.12 35.4313L297.773 35.0422C296.311 33.3875 295.5 31.2594 295.5 29.0562V28.175C295.5 24.5562 292.898 21.5656 289.5 20.8391V20C289.5 19.1703 288.83 18.5 288 18.5ZM290.123 41.6234C290.686 41.0609 291 40.2969 291 39.5H285C285 40.2969 285.314 41.0609 285.877 41.6234C286.439 42.1859 287.203 42.5 288 42.5C288.797 42.5 289.561 42.1859 290.123 41.6234Z" fill="#8A939E"/>
<path d="M302 23.5C306.418 23.5 310 19.9183 310 15.5C310 11.0817 306.418 7.5 302 7.5C297.582 7.5 294 11.0817 294 15.5C294 19.9183 297.582 23.5 302 23.5Z" fill="#EF4444"/>
<path d="M300.21 12.9545V19.5H298.826V14.2681H298.788L297.289 15.2077V13.9805L298.909 12.9545H300.21ZM304.185 19.5895C303.708 19.5895 303.283 19.5075 302.91 19.3434C302.539 19.1772 302.246 18.9492 302.031 18.6594C301.818 18.3675 301.708 18.0309 301.702 17.6495H303.095C303.104 17.8093 303.156 17.9499 303.252 18.0714C303.35 18.1907 303.48 18.2834 303.642 18.3494C303.804 18.4155 303.986 18.4485 304.188 18.4485C304.399 18.4485 304.586 18.4112 304.748 18.3366C304.91 18.2621 305.036 18.1587 305.128 18.0266C305.22 17.8945 305.266 17.7422 305.266 17.5696C305.266 17.3949 305.217 17.2404 305.119 17.1062C305.023 16.9698 304.884 16.8633 304.703 16.7866C304.524 16.7099 304.311 16.6715 304.064 16.6715H303.453V15.6552H304.064C304.273 15.6552 304.457 15.619 304.617 15.5465C304.779 15.4741 304.904 15.3739 304.994 15.2461C305.083 15.1161 305.128 14.9648 305.128 14.7923C305.128 14.6282 305.089 14.4844 305.01 14.3608C304.933 14.2351 304.824 14.1371 304.684 14.0668C304.545 13.9964 304.383 13.9613 304.198 13.9613C304.011 13.9613 303.839 13.9954 303.684 14.0636C303.528 14.1296 303.403 14.2244 303.31 14.348C303.216 14.4716 303.166 14.6165 303.159 14.7827H301.833C301.839 14.4055 301.947 14.0732 302.156 13.7855C302.365 13.4979 302.646 13.2731 303 13.1112C303.355 12.9471 303.757 12.8651 304.204 12.8651C304.656 12.8651 305.051 12.9471 305.39 13.1112C305.729 13.2752 305.992 13.4968 306.18 13.7759C306.369 14.0529 306.463 14.364 306.461 14.7092C306.463 15.0756 306.349 15.3814 306.119 15.6264C305.891 15.8714 305.594 16.027 305.227 16.093V16.1442C305.709 16.206 306.075 16.3732 306.327 16.646C306.58 16.9165 306.706 17.2553 306.704 17.6623C306.706 18.0352 306.598 18.3665 306.381 18.6562C306.166 18.946 305.869 19.174 305.489 19.3402C305.11 19.5064 304.675 19.5895 304.185 19.5895Z" fill="white"/>
<path d="M259.677 55.8945V54.5H266.247V55.8945H263.798V62.5H262.126V55.8945H259.677ZM268.962 59.0313V62.5H267.298V54.5H268.915V57.5586H268.985C269.121 57.2044 269.34 56.9271 269.642 56.7266C269.944 56.5234 270.323 56.4219 270.778 56.4219C271.195 56.4219 271.558 56.513 271.868 56.6953C272.181 56.875 272.423 57.1341 272.595 57.4727C272.769 57.8086 272.855 58.2109 272.853 58.6797V62.5H271.188V58.9766C271.191 58.6068 271.097 58.319 270.907 58.1133C270.72 57.9076 270.457 57.8047 270.118 57.8047C269.892 57.8047 269.691 57.8529 269.517 57.9492C269.345 58.0456 269.209 58.1862 269.11 58.3711C269.014 58.5534 268.965 58.7734 268.962 59.0313ZM276.873 62.6172C276.266 62.6172 275.742 62.4883 275.299 62.2305C274.859 61.9701 274.519 61.6081 274.279 61.1445C274.04 60.6784 273.92 60.138 273.92 59.5234C273.92 58.9036 274.04 58.362 274.279 57.8984C274.519 57.4323 274.859 57.0703 275.299 56.8125C275.742 56.5521 276.266 56.4219 276.873 56.4219C277.48 56.4219 278.003 56.5521 278.443 56.8125C278.886 57.0703 279.227 57.4323 279.467 57.8984C279.706 58.362 279.826 58.9036 279.826 59.5234C279.826 60.138 279.706 60.6784 279.467 61.1445C279.227 61.6081 278.886 61.9701 278.443 62.2305C278.003 62.4883 277.48 62.6172 276.873 62.6172ZM276.881 61.3281C277.157 61.3281 277.387 61.25 277.572 61.0938C277.757 60.9349 277.896 60.7187 277.99 60.4453C278.087 60.1719 278.135 59.8607 278.135 59.5117C278.135 59.1628 278.087 58.8516 277.99 58.5781C277.896 58.3047 277.757 58.0885 277.572 57.9297C277.387 57.7708 277.157 57.6914 276.881 57.6914C276.602 57.6914 276.368 57.7708 276.178 57.9297C275.99 58.0885 275.848 58.3047 275.752 58.5781C275.658 58.8516 275.611 59.1628 275.611 59.5117C275.611 59.8607 275.658 60.1719 275.752 60.4453C275.848 60.7187 275.99 60.9349 276.178 61.0938C276.368 61.25 276.602 61.3281 276.881 61.3281ZM277.658 55.7812L276.873 54.8281L276.088 55.7812H274.67V55.7266L276.252 54.0078H277.49L279.076 55.7266V55.7812H277.658ZM282.572 59.0313V62.5H280.908V56.5H282.494V57.5586H282.564C282.697 57.2096 282.92 56.9336 283.232 56.7305C283.545 56.5247 283.924 56.4219 284.369 56.4219C284.786 56.4219 285.149 56.513 285.459 56.6953C285.769 56.8776 286.01 57.138 286.182 57.4766C286.354 57.8125 286.439 58.2135 286.439 58.6797V62.5H284.775V58.9766C284.778 58.6094 284.684 58.3229 284.494 58.1172C284.304 57.9089 284.042 57.8047 283.709 57.8047C283.485 57.8047 283.287 57.8529 283.115 57.9492C282.946 58.0456 282.813 58.1862 282.717 58.3711C282.623 58.5534 282.575 58.7734 282.572 59.0313ZM290.454 64.875C289.915 64.875 289.453 64.8008 289.067 64.6523C288.685 64.5065 288.38 64.3073 288.153 64.0547C287.927 63.8021 287.78 63.5182 287.712 63.2031L289.251 62.9961C289.298 63.1159 289.372 63.2279 289.474 63.332C289.575 63.4362 289.709 63.5195 289.876 63.582C290.045 63.6471 290.251 63.6797 290.493 63.6797C290.855 63.6797 291.153 63.5911 291.388 63.4141C291.625 63.2396 291.743 62.9466 291.743 62.5352V61.4375H291.673C291.6 61.6042 291.491 61.7617 291.345 61.9102C291.199 62.0586 291.011 62.1797 290.782 62.2734C290.553 62.3672 290.28 62.4141 289.962 62.4141C289.511 62.4141 289.101 62.3099 288.731 62.1016C288.364 61.8906 288.071 61.569 287.853 61.1367C287.636 60.7018 287.528 60.1523 287.528 59.4883C287.528 58.8086 287.639 58.2409 287.86 57.7852C288.082 57.3294 288.376 56.9883 288.743 56.7617C289.113 56.5352 289.518 56.4219 289.958 56.4219C290.294 56.4219 290.575 56.4792 290.802 56.5938C291.028 56.7057 291.211 56.8464 291.349 57.0156C291.489 57.1823 291.597 57.3464 291.673 57.5078H291.735V56.5H293.388V62.5586C293.388 63.069 293.263 63.4961 293.013 63.8398C292.763 64.1836 292.416 64.4414 291.974 64.6133C291.534 64.7878 291.027 64.875 290.454 64.875ZM290.489 61.1641C290.757 61.1641 290.984 61.0977 291.169 60.9648C291.356 60.8294 291.5 60.6367 291.599 60.3867C291.7 60.1341 291.751 59.832 291.751 59.4805C291.751 59.1289 291.701 58.8242 291.603 58.5664C291.504 58.306 291.36 58.1042 291.173 57.9609C290.985 57.8177 290.757 57.7461 290.489 57.7461C290.216 57.7461 289.985 57.8203 289.798 57.9687C289.61 58.1146 289.468 58.3177 289.372 58.5781C289.276 58.8385 289.228 59.1393 289.228 59.4805C289.228 59.8268 289.276 60.1263 289.372 60.3789C289.471 60.6289 289.613 60.8229 289.798 60.9609C289.985 61.0964 290.216 61.1641 290.489 61.1641ZM297.289 62.5V54.5H298.953V57.5078H299.004C299.077 57.3464 299.182 57.1823 299.32 57.0156C299.461 56.8464 299.643 56.7057 299.867 56.5938C300.094 56.4792 300.375 56.4219 300.711 56.4219C301.148 56.4219 301.552 56.5365 301.922 56.7656C302.292 56.9922 302.587 57.3346 302.809 57.793C303.03 58.2487 303.141 58.8203 303.141 59.5078C303.141 60.1771 303.033 60.7422 302.816 61.2031C302.603 61.6615 302.311 62.0091 301.941 62.2461C301.574 62.4805 301.163 62.5977 300.707 62.5977C300.384 62.5977 300.109 62.5443 299.883 62.4375C299.659 62.3307 299.475 62.1966 299.332 62.0352C299.189 61.8711 299.079 61.7057 299.004 61.5391H298.93V62.5H297.289ZM298.918 59.5C298.918 59.8568 298.967 60.168 299.066 60.4336C299.165 60.6992 299.309 60.9062 299.496 61.0547C299.684 61.2005 299.911 61.2734 300.18 61.2734C300.451 61.2734 300.68 61.1992 300.867 61.0508C301.055 60.8997 301.197 60.6914 301.293 60.4258C301.392 60.1576 301.441 59.849 301.441 59.5C301.441 59.1536 301.393 58.849 301.297 58.5859C301.201 58.3229 301.059 58.1172 300.871 57.9687C300.684 57.8203 300.453 57.7461 300.18 57.7461C299.909 57.7461 299.68 57.8177 299.492 57.9609C299.307 58.1042 299.165 58.3073 299.066 58.5703C298.967 58.8333 298.918 59.1432 298.918 59.5ZM305.962 62.6133C305.579 62.6133 305.238 62.5469 304.938 62.4141C304.639 62.2786 304.402 62.0794 304.228 61.8164C304.056 61.5508 303.97 61.2201 303.97 60.8242C303.97 60.4909 304.031 60.2109 304.153 59.9844C304.276 59.7578 304.442 59.5755 304.653 59.4375C304.864 59.2995 305.104 59.1953 305.372 59.125C305.643 59.0547 305.927 59.0052 306.224 58.9766C306.573 58.9401 306.854 58.9062 307.067 58.875C307.281 58.8411 307.436 58.7917 307.532 58.7266C307.629 58.6615 307.677 58.5651 307.677 58.4375V58.4141C307.677 58.1667 307.599 57.9753 307.442 57.8398C307.289 57.7044 307.07 57.6367 306.786 57.6367C306.487 57.6367 306.248 57.7031 306.071 57.8359C305.894 57.9661 305.777 58.1302 305.72 58.3281L304.181 58.2031C304.259 57.8385 304.412 57.5234 304.642 57.2578C304.871 56.9896 305.166 56.7839 305.528 56.6406C305.893 56.4948 306.315 56.4219 306.794 56.4219C307.127 56.4219 307.446 56.4609 307.751 56.5391C308.058 56.6172 308.33 56.7383 308.567 56.9023C308.807 57.0664 308.996 57.2773 309.134 57.5352C309.272 57.7904 309.341 58.0964 309.341 58.4531V62.5H307.763V61.668H307.716C307.619 61.8555 307.491 62.0208 307.329 62.1641C307.168 62.3047 306.974 62.4154 306.747 62.4961C306.521 62.5742 306.259 62.6133 305.962 62.6133ZM306.438 61.4648C306.683 61.4648 306.899 61.4167 307.087 61.3203C307.274 61.2214 307.422 61.0885 307.528 60.9219C307.635 60.7552 307.688 60.5664 307.688 60.3555V59.7188C307.636 59.7526 307.565 59.7839 307.474 59.8125C307.385 59.8385 307.285 59.8633 307.173 59.8867C307.061 59.9076 306.949 59.9271 306.837 59.9453C306.725 59.9609 306.623 59.9753 306.532 59.9883C306.337 60.0169 306.166 60.0625 306.021 60.125C305.875 60.1875 305.761 60.2721 305.681 60.3789C305.6 60.4831 305.56 60.6133 305.56 60.7695C305.56 60.9961 305.642 61.1693 305.806 61.2891C305.972 61.4062 306.183 61.4648 306.438 61.4648ZM306.259 55.7266L307.087 53.9492H308.626L307.435 55.7266H306.259ZM313.343 62.6172C312.736 62.6172 312.211 62.4883 311.769 62.2305C311.328 61.9701 310.989 61.6081 310.749 61.1445C310.509 60.6784 310.39 60.138 310.39 59.5234C310.39 58.9036 310.509 58.362 310.749 57.8984C310.989 57.4323 311.328 57.0703 311.769 56.8125C312.211 56.5521 312.736 56.4219 313.343 56.4219C313.95 56.4219 314.473 56.5521 314.913 56.8125C315.356 57.0703 315.697 57.4323 315.937 57.8984C316.176 58.362 316.296 58.9036 316.296 59.5234C316.296 60.138 316.176 60.6784 315.937 61.1445C315.697 61.6081 315.356 61.9701 314.913 62.2305C314.473 62.4883 313.95 62.6172 313.343 62.6172ZM313.351 61.3281C313.627 61.3281 313.857 61.25 314.042 61.0938C314.227 60.9349 314.366 60.7187 314.46 60.4453C314.556 60.1719 314.604 59.8607 314.604 59.5117C314.604 59.1628 314.556 58.8516 314.46 58.5781C314.366 58.3047 314.227 58.0885 314.042 57.9297C313.857 57.7708 313.627 57.6914 313.351 57.6914C313.072 57.6914 312.838 57.7708 312.647 57.9297C312.46 58.0885 312.318 58.3047 312.222 58.5781C312.128 58.8516 312.081 59.1628 312.081 59.5117C312.081 59.8607 312.128 60.1719 312.222 60.4453C312.318 60.7187 312.46 60.9349 312.647 61.0938C312.838 61.25 313.072 61.3281 313.351 61.3281Z" fill="#8A939E"/>
<path d="M345.438 19.875C343.538 19.875 342 21.4133 342 23.3125V26.0625C342 27.9617 343.538 29.5 345.438 29.5H348.188C350.087 29.5 351.625 27.9617 351.625 26.0625V23.3125C351.625 21.4133 350.087 19.875 348.188 19.875H345.438ZM357.812 19.875C355.913 19.875 354.375 21.4133 354.375 23.3125V26.0625C354.375 27.9617 355.913 29.5 357.812 29.5H360.562C362.462 29.5 364 27.9617 364 26.0625V23.3125C364 21.4133 362.462 19.875 360.562 19.875H357.812ZM345.438 30.875C343.538 30.875 342 32.4133 342 34.3125V37.0625C342 38.9617 343.538 40.5 345.438 40.5H348.188C350.087 40.5 351.625 38.9617 351.625 37.0625V34.3125C351.625 32.4133 350.087 30.875 348.188 30.875H345.438ZM357.812 30.875C355.913 30.875 354.375 32.4133 354.375 34.3125V37.0625C354.375 38.9617 355.913 40.5 357.812 40.5H360.562C362.462 40.5 364 38.9617 364 37.0625V34.3125C364 32.4133 362.462 30.875 360.562 30.875H357.812Z" fill="#8A939E"/>
<path d="M338.981 55.8945V54.5H345.551V55.8945H343.102V62.5H341.43V55.8945H338.981ZM348.266 59.0313V62.5H346.602V54.5H348.219V57.5586H348.29C348.425 57.2044 348.644 56.9271 348.946 56.7266C349.248 56.5234 349.627 56.4219 350.083 56.4219C350.499 56.4219 350.862 56.513 351.172 56.6953C351.485 56.875 351.727 57.1341 351.899 57.4727C352.073 57.8086 352.159 58.2109 352.157 58.6797V62.5H350.493V58.9766C350.495 58.6068 350.402 58.319 350.211 58.1133C350.024 57.9076 349.761 57.8047 349.422 57.8047C349.196 57.8047 348.995 57.8529 348.821 57.9492C348.649 58.0456 348.514 58.1862 348.415 58.3711C348.318 58.5534 348.269 58.7734 348.266 59.0313ZM356.201 62.6172C355.583 62.6172 355.052 62.4922 354.607 62.2422C354.164 61.9896 353.823 61.6328 353.583 61.1719C353.344 60.7083 353.224 60.1602 353.224 59.5273C353.224 58.9102 353.344 58.3685 353.583 57.9023C353.823 57.4362 354.16 57.0729 354.595 56.8125C355.033 56.5521 355.546 56.4219 356.134 56.4219C356.53 56.4219 356.899 56.4857 357.24 56.6133C357.583 56.7383 357.883 56.9271 358.138 57.1797C358.396 57.4323 358.597 57.75 358.74 58.1328C358.883 58.513 358.955 58.9583 358.955 59.4687V59.9258H353.888V58.8945H357.388C357.388 58.6549 357.336 58.4427 357.232 58.2578C357.128 58.0729 356.983 57.9284 356.798 57.8242C356.616 57.7174 356.404 57.6641 356.162 57.6641C355.909 57.6641 355.685 57.7227 355.49 57.8398C355.297 57.9544 355.146 58.1094 355.037 58.3047C354.927 58.4974 354.871 58.7122 354.869 58.9492V59.9297C354.869 60.2266 354.923 60.4831 355.033 60.6992C355.145 60.9154 355.302 61.082 355.505 61.1992C355.708 61.3164 355.949 61.375 356.228 61.375C356.413 61.375 356.582 61.349 356.736 61.2969C356.889 61.2448 357.021 61.1667 357.13 61.0625C357.24 60.9583 357.323 60.8307 357.38 60.6797L358.919 60.7812C358.841 61.151 358.681 61.474 358.439 61.75C358.199 62.0234 357.889 62.237 357.509 62.3906C357.132 62.5417 356.695 62.6172 356.201 62.6172ZM356.88 55.7812L356.095 54.8281L355.31 55.7812H353.892V55.7266L355.474 54.0078H356.712L358.298 55.7266V55.7812H356.88ZM360.041 62.5V56.5H361.626V57.5586H361.697C361.822 57.207 362.03 56.9297 362.322 56.7266C362.613 56.5234 362.962 56.4219 363.369 56.4219C363.78 56.4219 364.13 56.5247 364.419 56.7305C364.708 56.9336 364.901 57.2096 364.998 57.5586H365.06C365.182 57.2148 365.404 56.9401 365.724 56.7344C366.047 56.526 366.429 56.4219 366.869 56.4219C367.429 56.4219 367.883 56.6003 368.232 56.957C368.583 57.3112 368.759 57.8138 368.759 58.4648V62.5H367.099V58.793C367.099 58.4596 367.011 58.2096 366.833 58.043C366.656 57.8763 366.435 57.793 366.169 57.793C365.867 57.793 365.632 57.8893 365.462 58.082C365.293 58.2721 365.208 58.5234 365.208 58.8359V62.5H363.595V58.7578C363.595 58.4635 363.511 58.2292 363.341 58.0547C363.175 57.8802 362.955 57.793 362.681 57.793C362.496 57.793 362.33 57.8398 362.181 57.9336C362.035 58.0247 361.919 58.1536 361.833 58.3203C361.748 58.4844 361.705 58.6771 361.705 58.8984V62.5H360.041Z" fill="#8A939E"/>
<defs>
<clipPath id="clip0_0_1">
<rect width="24" height="24" fill="white" transform="translate(196 18.5)"/>
</clipPath>
</defs>
</svg>
