<svg xmlns="http://www.w3.org/2000/svg" width="128" height="128" viewBox="0 0 128 128" role="img" aria-labelledby="title desc">
  <title id="title">Fleet Management</title>
  <desc id="desc">A simplified operational fleet vehicle.</desc>
  <rect width="128" height="128" fill="#FFFFFF"/>

  <!-- Passenger/operations vehicle, intentionally not a delivery box truck. -->
  <path d="M21 55C21 47 27 41 35 41H74C83 41 90 45 95 52L106 67H111C116 67 120 71 120 76V92H13V67C13 60 16 56 21 55Z" fill="#9B4F86"/>
  <path d="M35 41H74C83 41 90 45 95 52L101 60H21V55C21 47 27 41 35 41Z" fill="#B968A4"/>
  <path d="M65 48H74C80 48 84 50 88 55L97 67H65Z" fill="#28A9DF"/>
  <rect x="28" y="65" width="31" height="15" rx="4" fill="#DDF5FC"/>
  <path d="M13 81H120V91H13Z" fill="#FFB547"/>

  <circle cx="39" cy="93" r="16" fill="#274D61"/>
  <circle cx="97" cy="93" r="16" fill="#274D61"/>
  <circle cx="39" cy="93" r="7" fill="#D9E3E8"/>
  <circle cx="97" cy="93" r="7" fill="#D9E3E8"/>
</svg>
