<svg width="391" height="83" viewBox="0 0 391 83" fill="none" xmlns="http://www.w3.org/2000/svg"><style>
text { font-family: Inter, Arial, Helvetica, 'DejaVu Sans', sans-serif; }
.label { font-size: 10px; font-weight: 700; fill: #374151; }
.note { font-size: 9px; font-weight: 600; fill: #6B7280; }
</style>
<rect x="0" y="0" width="391" height="83" fill="#FFFFFF" stroke="#EEF2F5"/>
<line x1="0" y1="0" x2="391" y2="0" stroke="#EEF2F5"/>
<!-- Trang chủ active: brand cyan. Red is reserved for badge/alert only. -->
<g transform="translate(27,16)" stroke="#28A9DF" stroke-width="2.2" stroke-linecap="round" stroke-linejoin="round" fill="none">
  <path d="M3.5 11.2 12 4l8.5 7.2"/>
  <path d="M5.5 10.7V20h5.1v-5.4h2.8V20h5.1v-9.3"/>
</g>
<text x="39" y="59" font-size="11.2" font-weight="700" text-anchor="middle" fill="#28A9DF">Trang chủ</text>
<g transform="translate(105,16)" stroke="#8A939E" stroke-width="2.2" stroke-linecap="round" stroke-linejoin="round" fill="none">
  <path d="M3.5 5h2.2l2 10.2a2 2 0 0 0 2 1.6h6.9a2 2 0 0 0 1.9-1.5L20 8H6.6"/>
  <circle cx="10" cy="20" r="1.4"/><circle cx="17" cy="20" r="1.4"/>
</g>
<text x="117" y="59" font-size="11.2" font-weight="700" text-anchor="middle" fill="#8A939E">Đặt hàng</text>
<g transform="translate(183,16)" stroke="#8A939E" stroke-width="2.2" stroke-linecap="round" stroke-linejoin="round" fill="none">
  <path d="M3 6h12v12H3z"/><path d="M15 10h4.5l2.5 3.4V18h-7"/>
  <circle cx="7" cy="20" r="1.6"/><circle cx="19" cy="20" r="1.6"/>
</g>
<text x="195" y="59" font-size="11.2" font-weight="700" text-anchor="middle" fill="#8A939E">Giao hàng</text>
<g transform="translate(261,16)" stroke="#8A939E" stroke-width="2.2" stroke-linecap="round" stroke-linejoin="round" fill="none">
  <path d="M12 21.5a2.2 2.2 0 0 0 2-1.3h-4a2.2 2.2 0 0 0 2 1.3z"/>
  <path d="M5.2 17.5h13.6c-1.4-1.5-2-2.5-2-5.3 0-3.2-1.7-5.7-4.8-5.7s-4.8 2.5-4.8 5.7c0 2.8-.6 3.8-2 5.3z"/>
</g>
<circle cx="290" cy="13" r="8" fill="#EF4444"/>
<text x="290" y="17" text-anchor="middle" font-size="9.5" font-weight="800" fill="white">13</text>
<text x="273" y="59" font-size="11.2" font-weight="700" text-anchor="middle" fill="#8A939E">Thông báo</text>
<g transform="translate(339,16)" stroke="#8A939E" stroke-width="2.2" stroke-linecap="round" stroke-linejoin="round" fill="none">
  <rect x="4" y="4" width="5.5" height="5.5" rx="1.2"/><rect x="14.5" y="4" width="5.5" height="5.5" rx="1.2"/>
  <rect x="4" y="14.5" width="5.5" height="5.5" rx="1.2"/><rect x="14.5" y="14.5" width="5.5" height="5.5" rx="1.2"/>
</g>
<text x="351" y="59" font-size="11.2" font-weight="700" text-anchor="middle" fill="#8A939E">Thêm</text>
</svg>